<?xml version="1.0" standalone="no"?>
<!DOCTYPE svg PUBLIC "-//W3C//DTD SVG 1.1//EN" "http://www.w3.org/Graphics/SVG/1.1/DTD/svg11.dtd" >
<svg xmlns="http://www.w3.org/2000/svg">
  <metadata>Created by iconfont</metadata>
  <defs>
  <font id="iconfont" horiz-adv-x="1024">
    <font-face
      font-family="iconfont"
      font-weight="400"
      font-stretch="normal"
      units-per-em="1024"
      ascent="896"
      descent="-128"
    />
      <missing-glyph />
      
      <glyph glyph-name="shaixuanziduan" unicode="&#58913;" d="M889.12 240V829.76a34.24 34.24 0 0 1-68.48 0V240a101.44 101.44 0 0 1 0-192v-109.76a34.24 34.24 0 0 1 68.48 0V48a103.36 103.36 0 0 1 68.64 96 96.96 96.96 0 0 1-68.64 96z m-34.24-130.24A34.24 34.24 0 1 0 889.12 144a32 32 0 0 0-34.24-34.24zM203.36 240V829.76A32 32 0 0 1 169.12 864a32 32 0 0 1-34.24-34.24V240a96.96 96.96 0 0 1-68.64-96 103.36 103.36 0 0 1 68.64-96v-109.76A32 32 0 0 1 169.12-96a32 32 0 0 1 34.24 34.24V48A103.04 103.04 0 0 1 272 144a96 96 0 0 1-68.64 96z m-34.24-130.24a34.24 34.24 0 0 0 0 68.48 34.24 34.24 0 0 0 0-68.48zM546.24 720V829.76a34.24 34.24 0 0 1-68.48 0V720a101.44 101.44 0 0 1 0-192v-589.76a34.24 34.24 0 0 1 68.48 0V528a101.44 101.44 0 0 1 0 192zM512 589.76A32 32 0 0 0 477.76 624a34.24 34.24 0 0 0 68.48 0A32 32 0 0 0 512 589.76z"  horiz-adv-x="1024" />
      
      <glyph glyph-name="yonghuda" unicode="&#58912;" d="M791.552 419.002182a184.040727 184.040727 0 0 1-103.005091 321.722182 35.048727 35.048727 0 0 1-7.074909-69.725091 114.129455 114.129455 0 0 0 102.772364-114.036364 114.362182 114.362182 0 0 0-101.608728-113.803636 34.490182 34.490182 0 0 1-27.461818-20.712728c-0.093091-0.093091-0.139636-0.139636-0.139636-0.232727a33.605818 33.605818 0 0 1-2.56-9.634909c-0.232727-1.303273-0.930909-2.373818-0.977455-3.723636-0.046545-0.930909 0.372364-1.768727 0.418909-2.746182 0-0.558545-0.232727-1.070545-0.139636-1.675636 0.093091-0.884364 0.558545-1.582545 0.744727-2.420364a34.583273 34.583273 0 0 1 32.069818-30.068364c130.653091-7.214545 237.335273-111.104 248.087273-241.664a35.048727 35.048727 0 1 1 69.864727 5.771637c-10.658909 129.070545-95.557818 237.288727-210.990545 282.949818zM538.391273 400.942545a210.618182 210.618182 0 0 1 79.499636 164.677819A211.316364 211.316364 0 0 1 406.807273 776.704a211.316364 211.316364 0 0 1-211.037091-211.083636c0-66.56 31.092364-125.998545 79.453091-164.677819C137.402182 350.208 34.117818 222.952727 21.457455 69.911273a35.048727 35.048727 0 0 1 32.023272-37.841455 34.676364 34.676364 0 0 1 37.794909 32.069818c13.498182 162.909091 152.110545 290.443636 315.578182 290.443637 163.467636 0 302.08-127.534545 315.578182-290.443637a35.048727 35.048727 0 1 1 69.818182 5.771637c-12.660364 153.134545-115.991273 280.343273-253.858909 331.031272zM265.914182 565.620364a141.125818 141.125818 0 0 0 140.939636 140.986181 141.079273 141.079273 0 0 0 140.939637-140.986181 141.079273 141.079273 0 0 0-140.939637-140.893091 141.079273 141.079273 0 0 0-140.939636 140.893091z"  horiz-adv-x="1024" />
      
      <glyph glyph-name="icon_ddpz" unicode="&#58911;" d="M231.552 664.576a49.088 49.088 0 0 1 4.8-3.904c3.968-3.008 9.344-6.4 16.128-10.368 13.504-7.808 30.912-16.448 50.112-25.408 23.488-10.944 47.744-21.44 69.888-31.04a2944 2944 0 0 0 40.704-17.92c7.232-3.2 13.76-6.336 19.2-9.024 4.8-2.432 10.368-5.44 14.528-8.64a28.16 28.16 0 0 0 10.368-13.824 26.304 26.304 0 0 0-16.96-33.856 36.224 36.224 0 0 0-12.544-1.6 94.08 94.08 0 0 0-9.344 0.896c-23.104 3.2-78.464 16.192-181.504 43.008 1.6-3.776 3.52-7.936 5.824-12.48 13.44-26.688 34.688-59.2 52.608-86.72l11.456-17.6a58.624 58.624 0 0 1 8.96-3.392c9.088-2.752 21.568-5.376 36.224-7.68 19.52-3.2 40.448-5.696 59.904-7.936 10.24-1.28 20.032-2.368 28.992-3.584 11.904-1.536 24-3.392 31.936-5.76 2.112-0.64 5.12-1.728 8.064-3.392a26.88 26.88 0 0 0 6.08-43.904 34.176 34.176 0 0 0-10.496-6.528c-8.512-3.456-23.104-6.144-41.728-8.768-16.64-2.368-38.848-5.056-67.584-8.064 3.392-4.48 7.872-9.856 13.568-15.936 25.344-26.816 64.64-56.64 97.024-71.36a77.888 77.888 0 0 1 12.608 0.64c9.6 1.152 21.568 3.584 34.56 6.656 12.8 3.008 25.92 6.528 37.76 9.664l1.984 0.576c10.688 2.816 20.8 5.568 27.712 7.04a32.896 32.896 0 0 0 21.376-2.368c7.872-3.776 12.48-9.984 15.04-15.36a55.04 55.04 0 0 0 3.968-26.432c-0.832-14.912-5.248-34.112-9.6-51.584l-5.376-20.864c-2.816-10.624-5.376-20.544-7.488-29.696a894.656 894.656 0 0 1 8.96 3.456c8.576 3.328 19.584 7.552 28.608 9.408a42.048 42.048 0 0 0 21.824-0.64 30.08 30.08 0 0 0 20.48-29.184c0-6.208-1.6-14.08-3.008-20.544-1.664-7.296-3.968-16.128-6.528-25.664l-6.464-23.808c-3.648-12.992-7.36-26.688-10.944-40.384l-3.2-12.416c17.6 23.04 38.016 51.52 58.368 80.832a4668.928 4668.928 0 0 1 84.992 126.72 647.232 647.232 0 0 1-24.704-0.96c-12.416-0.576-25.472-1.216-35.2-0.896a63.68 63.68 0 0 0-21.056 3.392 29.12 29.12 0 0 0-16.896 17.024 28.48 28.48 0 0 0 4.16 26.56c43.648 60.608 77.44 119.488 100.288 171.136 23.04 52.032 33.92 94.656 33.984 123.648 0 0-1.152 4.288-11.52 13.056-11.008 9.344-28.096 20.032-51.136 31.872-45.824 23.552-110.016 49.024-182.528 75.968-32.768 12.224-67.2 24.704-102.272 37.376-112.896 40.832-231.552 83.84-318.528 126.08 0.32-7.424 2.048-18.24 5.76-32.512 9.984-38.72 30.848-88.064 47.808-123.008zM146.304 867.904a46.016 46.016 0 0 0 36.672 6.08l3.2-0.704 2.944-1.472c84.8-42.752 204.928-86.208 322.432-128.768 35.648-12.928 71.04-25.728 105.088-38.4 72.448-26.88 139.2-53.312 188.032-78.4 24.32-12.48 45.504-25.28 60.928-38.4 14.272-12.16 29.568-29.44 29.568-51.712 0-39.424-14.08-89.856-38.336-144.704-19.904-45.12-47.36-94.528-81.28-145.408l9.856 0.448c15.232 0.64 33.152 1.28 46.592-0.512 5.76-0.768 16-2.496 24.192-8.768a30.784 30.784 0 0 0 8.128-40.192c-6.592-12.16-55.04-86.912-103.872-157.12a2101.184 2101.184 0 0 0-70.4-96.384c-10.24-12.928-19.712-24.32-27.712-32.448a100.032 100.032 0 0 0-12.544-11.072 43.712 43.712 0 0 0-8.32-4.736 30.336 30.336 0 0 0-16.32-2.24 30.08 30.08 0 0 0-21.76 15.104 40.704 40.704 0 0 0-4.736 15.68 110.016 110.016 0 0 0 1.152 26.304c2.56 17.984 8 41.088 13.888 63.552 3.584 13.888 7.616 28.352 11.264 41.728a4074.88 4074.88 0 0 1 7.168 26.24c-8.576-3.264-18.88-7.04-28.096-8.96a54.592 54.592 0 0 0-20.032-0.896 33.152 33.152 0 0 0-28.352 33.088c-0.192 3.84 0.064 7.68 0.448 11.136 0.768 7.04 2.368 14.976 4.16 22.912 2.24 9.92 5.312 21.632 8.32 33.152l4.928 19.008c2.56 10.304 4.672 19.52 6.144 27.264l-2.816-0.768-0.96-0.256c-11.712-3.136-25.6-6.784-39.232-10.048a382.08 382.08 0 0 0-40.128-7.68c-6.208-0.64-12.544-1.152-18.496-1.024a52.8 52.8 0 0 0-19.904 4.032c-40.064 17.728-85.376 52.48-114.56 83.456-14.08 14.912-27.52 32.064-32.768 48.128a40.704 40.704 0 0 0 2.304 33.664 34.688 34.688 0 0 0 9.408 10.496 247.488 247.488 0 0 0-21.76 5.44 105.28 105.28 0 0 0-18.112 7.232 45.312 45.312 0 0 0-17.344 15.04 2917.504 2917.504 0 0 1-11.904 18.304c-17.984 27.584-41.408 63.488-56.32 93.056a222.208 222.208 0 0 0-11.904 27.456 76.672 76.672 0 0 0-4.864 27.904 36.352 36.352 0 0 0 20.16 32 42.88 42.88 0 0 0 22.208 3.712 204.736 204.736 0 0 0-16.832 11.072 76.352 76.352 0 0 0-16.768 16.192l-1.216 1.664-0.896 1.92c-17.792 36.288-41.216 90.752-52.8 135.424-5.568 21.44-9.6 44.8-6.016 63.36a45.952 45.952 0 0 0 18.176 29.824z"  horiz-adv-x="1024" />
      
      <glyph glyph-name="a-locate-outline1" unicode="&#58910;" d="M512 809.6c14.08 0 25.6-11.456 25.6-25.6V704a25.6 25.6 0 0 0-51.2 0V784c0 14.144 11.456 25.6 25.6 25.6zM512 89.6c14.08 0 25.6-11.456 25.6-25.6v-80a25.6 25.6 0 0 0-51.2 0V64c0 14.144 11.456 25.6 25.6 25.6zM337.728 644.8a313.6 313.6 0 1 0 348.48-521.536 313.6 313.6 0 0 0-348.48 521.536zM512 646.4a262.4 262.4 0 1 1 0-524.8 262.4 262.4 0 0 1 0 524.8zM86.4 384c0 14.144 11.456 25.6 25.6 25.6H192a25.6 25.6 0 0 0 0-51.2H112a25.6 25.6 0 0 0-25.6 25.6zM806.4 384c0 14.144 11.456 25.6 25.6 25.6h80a25.6 25.6 0 0 0 0-51.2H832a25.6 25.6 0 0 0-25.6 25.6z"  horiz-adv-x="1024" />
      
      <glyph glyph-name="icon_bj" unicode="&#58909;" d="M300.8 172.8c0-12.8 0-19.2 6.4-25.6s12.8-6.4 19.2-6.4H332.8l172.8 44.8 448 448c19.2 19.2 32 51.2 0 83.2l-64 64c-32 32-64 32-96-6.4l-448-435.2-44.8-166.4z m524.8 563.2a19.456 19.456 0 0 0 25.6 0L896 691.2a19.456 19.456 0 0 0 0-25.6l-44.8-44.8L780.8 691.2l44.8 44.8z m-89.6-89.6L806.4 576l-313.6-313.6L422.4 332.8l313.6 313.6z m-352-358.4l64-64-83.2-19.2 19.2 83.2z m544 204.8c-25.6 0-38.4-12.8-38.4-25.6v-409.6c0-19.2-19.2-38.4-38.4-38.4H166.4c-19.2 0-38.4 19.2-38.4 38.4V716.8c0 19.2 19.2 38.4 38.4 38.4H614.4c12.8 0 25.6 12.8 25.6 32s-12.8 32-32 32h-448c-51.2 0-96-44.8-96-96v-678.4c0-51.2 44.8-96 96-96h704c51.2 0 96 44.8 96 96V460.8c0 19.2-12.8 32-32 32z"  horiz-adv-x="1024" />
      
      <glyph glyph-name="icon_tqyh" unicode="&#58901;" d="M703.36 91.328H316.48c-24.64 0-48.896 9.28-68.288 26.112a103.296 103.296 0 0 0-35.456 67.008l-40.576 243.84A108.864 108.864 0 0 0 71.04 537.344 108.8 108.8 0 0 0 179.2 646.4a108.8 108.8 0 0 0 106.944-125.568l88.96-35.968 67.648 136.96a108.48 108.48 0 0 0-38.912 83.84A108.8 108.8 0 0 0 512 814.72a108.8 108.8 0 0 0 108.16-109.12 109.632 109.632 0 0 0-38.848-83.84l67.584-136.96 88.96 36.032A108.8 108.8 0 0 0 844.8 646.4a108.8 108.8 0 0 0 108.16-109.12c0-57.792-44.736-105.216-101.056-108.928l-40.704-244.608a115.456 115.456 0 0 0-37.44-66.304 105.984 105.984 0 0 0-70.4-26.112z m-510.272 387.84a24.96 24.96 0 0 0 24.576-20.8l44.352-266.432a23.936 23.936 0 0 0 0.256-1.664c3.008-30.272 30.464-49.024 54.144-49.024h387.008c28.8 0 52.416 20.48 58.624 51.072l44.288 266.048a25.088 25.088 0 0 0 29.312 20.416 58.816 58.816 0 0 1 67.392 58.496 58.816 58.816 0 0 1-58.24 59.2 58.816 58.816 0 0 1-58.24-59.2c0-7.616 1.408-15.104 4.224-22.208a24.96 24.96 0 0 0-13.888-32.256l-130.752-52.864a24.96 24.96 0 0 0-31.744 12.032L526.848 619.328a24.96 24.96 0 0 0 11.2 33.408 59.456 59.456 0 0 1 32.192 52.928A58.816 58.816 0 0 1 512 764.8a58.816 58.816 0 0 1-58.24-59.2c0-22.72 12.352-43.008 32.256-52.928a24.96 24.96 0 0 0 11.2-33.408L409.6 442.048a24.96 24.96 0 0 0-31.68-12.16L247.04 482.88a24.96 24.96 0 0 0-13.824 32.384 59.52 59.52 0 0 1 4.224 22.08 58.816 58.816 0 0 1-58.24 59.2 58.816 58.816 0 0 1-58.24-59.2 58.816 58.816 0 0 1 67.392-58.496 24.96 24.96 0 0 0 4.736 0.448z m618.944-525.952H236.224a24.96 24.96 0 1 0 0 49.92h575.808a24.96 24.96 0 1 0 0-49.92z"  horiz-adv-x="1024" />
      
      <glyph glyph-name="icon_ljt" unicode="&#58902;" d="M160 640h-64a31.168 31.168 0 0 0-23.04 8.96A31.168 31.168 0 0 0 64 672c0 9.344 3.008 17.024 8.96 23.04A31.168 31.168 0 0 0 96 704h256V800c0 9.344 3.008 17.024 8.96 23.04A31.168 31.168 0 0 0 384 832h256c9.344 0 17.024-3.008 23.04-8.96 5.952-6.016 8.96-13.696 8.96-23.04V704h256c9.344 0 17.024-3.008 23.04-8.96 5.952-6.016 8.96-13.696 8.96-23.04a31.168 31.168 0 0 0-8.96-23.04 31.168 31.168 0 0 0-23.04-8.96h-64v-672a31.168 31.168 0 0 0-8.96-23.04 31.168 31.168 0 0 0-23.04-8.96H192a31.168 31.168 0 0 0-23.04 8.96 31.168 31.168 0 0 0-8.96 23.04V640z m448 64V768h-192v-64h192z m-384-704h576V640h-576v-640z m192 128a31.168 31.168 0 0 0-23.04 8.96 31.168 31.168 0 0 0-8.96 23.04v320c0 9.344 3.008 17.024 8.96 23.04A31.168 31.168 0 0 0 416 512c9.344 0 17.024-3.008 23.04-8.96 5.952-6.016 8.96-13.696 8.96-23.04v-320a31.168 31.168 0 0 0-8.96-23.04 31.168 31.168 0 0 0-23.04-8.96z m192 0a31.168 31.168 0 0 0-23.04 8.96 31.168 31.168 0 0 0-8.96 23.04v320c0 9.344 3.008 17.024 8.96 23.04A31.168 31.168 0 0 0 608 512c9.344 0 17.024-3.008 23.04-8.96 5.952-6.016 8.96-13.696 8.96-23.04v-320a31.168 31.168 0 0 0-8.96-23.04 31.168 31.168 0 0 0-23.04-8.96z"  horiz-adv-x="1024" />
      
      <glyph glyph-name="icon_sj" unicode="&#58903;" d="M987.456 91.456c0-113.728-28.16-182.912-109.76-182.912H146.304c-94.336 0-109.696 36.224-109.696 182.912 28.48 55.296 217.216 108.8 332.8 133.12a364.8 364.8 0 0 0-1.152 94.592A310.848 310.848 0 0 0 256 566.848C256 728.448 362.432 859.52 493.696 859.52c131.328 0 237.76-131.008 237.76-292.608a310.848 310.848 0 0 0-112.32-247.68c1.664-14.912 2.496-29.888 2.56-44.864-0.128-16.256-1.28-32.448-3.264-48.64 140.032-22.4 369.024-73.664 369.024-134.208zM512 237.696H475.52l-36.608-106.624 36.608-185.92H512l36.608 187.712L512 237.696z"  horiz-adv-x="1024" />
      
      <glyph glyph-name="icon_gd" unicode="&#58904;" d="M512 192c35.2 0 64-28.8 64-64s-28.8-64-64-64-64 28.8-64 64 28.8 64 64 64zM448 384c0-35.2 28.8-64 64-64s64 28.8 64 64-28.8 64-64 64-64-28.8-64-64z m0 256c0-35.2 28.8-64 64-64s64 28.8 64 64-28.8 64-64 64-64-28.8-64-64z"  horiz-adv-x="1024" />
      
      <glyph glyph-name="Frame" unicode="&#58905;" d="M300.8 172.8c0-12.8 0-19.2 6.4-25.6s12.8-6.4 19.2-6.4H332.8l172.8 44.8 448 448c19.2 19.2 32 51.2 0 83.2l-64 64c-32 32-64 32-96-6.4l-448-435.2-44.8-166.4z m524.8 563.2a19.456 19.456 0 0 0 25.6 0L896 691.2a19.456 19.456 0 0 0 0-25.6l-44.8-44.8L780.8 691.2l44.8 44.8z m-89.6-89.6L806.4 576l-313.6-313.6L422.4 332.8l313.6 313.6z m-352-358.4l64-64-83.2-19.2 19.2 83.2z m544 204.8c-25.6 0-38.4-12.8-38.4-25.6v-409.6c0-19.2-19.2-38.4-38.4-38.4H166.4c-19.2 0-38.4 19.2-38.4 38.4V716.8c0 19.2 19.2 38.4 38.4 38.4H614.4c12.8 0 25.6 12.8 25.6 32s-12.8 32-32 32h-448c-51.2 0-96-44.8-96-96v-678.4c0-51.2 44.8-96 96-96h704c51.2 0 96 44.8 96 96V460.8c0 19.2-12.8 32-32 32z"  horiz-adv-x="1024" />
      
      <glyph glyph-name="bq" unicode="&#58906;" d="M513.728 526.72A118.208 118.208 0 0 0 631.68 644.8a118.208 118.208 0 0 0 0-236.288 118.208 118.208 0 0 0-118.016 118.08z m381.248 173.312c0 37.12-30.144 67.328-66.048 67.328-1.152 0-117.76 4.352-205.76 4.352-101.312 0-110.464-4.928-121.472-15.872L345.024 599.04 144 397.824a67.712 67.712 0 0 1 0.192-95.68l285.952-286.08c12.8-12.8 29.76-19.776 47.936-19.776 18.048 0 34.944 7.04 47.552 19.648l223.744 223.808 134.08 134.208c11.84 11.776 22.912 22.976 11.52 326.08z"  horiz-adv-x="1024" />
      
      <glyph glyph-name="dm" unicode="&#58907;" d="M218.368 634.176L299.52 552.96h425.6l80.576 80.512 0.704-0.768a64 64 0 0 0-0.704-89.728l-34.688-34.688v-136.32h129.984a64 64 0 0 0-64-64h-65.984v-62.08c0-22.72-2.944-44.8-8.448-65.792l88.384-88.32a64 64 0 0 0-90.496 0l-24.192 24.192a260.096 260.096 0 0 0-192.256-128V479.04h-64v-491.136a260.096 260.096 0 0 0-193.216 126.464l-23.168-23.168a64 64 0 0 0-90.496 0l86.848 86.848a259.968 259.968 0 0 0-8.96 63.744V308.032H184.96a64 64 0 0 0-64 64h129.92V511.04l-32.576 32.64A64 64 0 0 0 217.6 633.344l0.768 0.768zM512 782.976a169.984 169.984 0 0 0 169.984-169.984H342.016A169.984 169.984 0 0 0 512 782.976z"  horiz-adv-x="1024" />
      
      <glyph glyph-name="bj" unicode="&#58908;" d="M633.984 505.6c40.32-40.32 40.32-106.432-0.128-146.816L278.4 4.032c-40.448-40.32-106.496-40.32-146.88 0.128a104.128 104.128 0 0 0 0.128 146.88l355.392 354.752a104.128 104.128 0 0 0 146.88-0.128z m-402.816-402.048a38.336 38.336 0 1 1-54.272-54.144 38.336 38.336 0 0 1 54.272 54.144zM530.368 402.24a229.952 229.952 0 0 0-0.576 325.184 229.12 229.12 0 0 0 227.328 57.28c6.912-3.392 9.28-11.968 5.504-19.2l-126.4-126.08 16.896-114.688 114.56-17.024 126.4 126.144c7.168 3.776 15.808 1.344 19.136-5.568a229.12 229.12 0 0 0-57.664-227.2 229.952 229.952 0 0 0-325.184 1.152z"  horiz-adv-x="1024" />
      
      <glyph glyph-name="icon_bm_off" unicode="&#58885;" d="M188.48 395.456c-43.968 0.768-69.76-11.456-71.36-55.488v-128H63.232a59.264 59.264 0 0 1-60.8-58.368v-149.248a59.072 59.072 0 0 1 60.8-57.6h165.568a59.264 59.264 0 0 1 60.8 58.432V153.6a59.776 59.776 0 0 1-60.8 58.368h-66.56V350.464H490.24V211.2H428.8a60.416 60.416 0 0 1-61.568-58.368v-148.032a59.328 59.328 0 0 1 61.632-57.6h166.4a59.264 59.264 0 0 1 60.8 58.368V153.6a59.776 59.776 0 0 1-60.8 58.432h-60.672V350.4h326.848V211.2h-66.24a59.264 59.264 0 0 1-60.8-58.432v-147.968a59.072 59.072 0 0 1 60.8-57.6h166.4a59.264 59.264 0 0 1 60.8 58.368V153.6a59.968 59.968 0 0 1-61.568 58.368h-53.952v128c-0.832 44.032-23.168 56.32-67.2 55.488H188.48z m43.52-229.504c7.168 0 12.8-5.568 12.8-11.968v-150.016c0-7.168-5.632-11.968-12.8-11.968H60.608c-7.232 0-12.8 5.632-12.8 12.032v149.952c0 7.168 5.568 11.968 12.8 11.968h171.264z m366.272-0.256c7.232 0 12.8-5.632 12.8-12.032v-149.632c0-7.232-5.568-12.032-12.8-12.032H425.984c-7.168 0-12.8 5.632-12.8 12.032V153.6c0 7.232 5.632 12.032 12.8 12.032h172.288z m378.88-161.728c0-7.168-5.568-11.968-12.8-11.968h-172.288c-7.232 0-12.8 5.632-12.8 12.032V153.6c0 7.168 5.568 11.968 12.8 11.968h172.352c7.168 0 12.8-5.568 12.8-11.968v-149.632z m-305.92 640.832a17.984 17.984 0 0 0 0 21.568l37.568 45.632-3.968 10.432-4.8 10.368c-3.2 8-6.4 15.168-9.6 20.032a96.896 96.896 0 0 1-19.2 27.968l-7.232 7.232-57.6-8a19.968 19.968 0 0 0-19.968 12.8L568 845.568 556.8 847.232c-28.8 6.4-57.6 6.4-86.4 0L460.8 845.632l-19.968-54.4a19.52 19.52 0 0 0-18.432-11.2h-1.6l-56.768 9.6-8-8.064a205.248 205.248 0 0 1-35.2-61.568l-4.032-9.6 37.632-45.568a16.832 16.832 0 0 0 0-20.8l-39.232-44.032 4.032-9.6c3.2-12.8 8.768-24.768 15.168-35.2 4.8-9.6 11.2-18.368 18.432-26.368l7.168-7.232 59.2 9.6a17.28 17.28 0 0 0 18.432-11.2l19.2-54.4 11.2-1.6c28.8-6.4 59.2-6.4 88 0l9.6 2.368 19.968 56a18.304 18.304 0 0 0 18.432 11.264l57.6-9.6 8 7.168A186.24 186.24 0 0 1 704 591.232l4.032 9.6-36.8 43.968zM513.6 573.632A82.304 82.304 0 0 0 431.232 656c0 45.568 36.8 82.432 82.368 82.432 45.632 0 82.432-36.8 82.432-82.432 0-45.632-36.8-81.6-82.432-82.368z"  horiz-adv-x="1024" />
      
      <glyph glyph-name="icon_yzh_off" unicode="&#58886;" d="M1000.155429-17.042286h-44.251429v505.417143c0 76.580571-60.489143 126.025143-135.606857 126.025143h-204.8l-0.950857 82.797714c0 76.507429-61.44 139.190857-136.557715 139.190857H204.8C129.755429 836.388571 68.315429 773.705143 68.315429 697.197714v-714.24H25.746286c-19.090286 0-25.746286-11.702857-25.746286-24.064 0-12.288 6.656-27.282286 25.746286-27.282285h974.409143c19.090286 0 24.064 13.824 24.064 27.282285 0 13.531429-6.802286 24.064-24.137143 24.064zM563.346286 637.952v-656.384H119.515429V710.875429c0 40.155429 33.28 72.996571 73.874285 72.996571H489.325714c40.740571 0 74.020571-32.914286 74.020572-72.996571v-72.923429z m342.162285-655.36H614.546286V564.516571h204.8c37.595429 0 86.162286-32.694857 86.162285-72.557714v-509.513143zM230.4 614.4h221.988571a25.6 25.6 0 0 0 0-51.2H230.4a25.6 25.6 0 1 0 0 51.2z m0-221.842286h221.988571a25.6 25.6 0 0 0 0-51.2H230.4a25.6 25.6 0 1 0 0 51.2z m477.988571 0h102.4a25.6 25.6 0 1 0 0-51.2h-102.4a25.6 25.6 0 1 0 0 51.2z m0-204.8h102.4a25.6 25.6 0 0 0 0-51.273143h-102.4a25.6 25.6 0 0 0 0 51.2z m-477.915428 0h221.915428a25.6 25.6 0 0 0 0-51.273143H230.4a25.6 25.6 0 0 0 0 51.2z"  horiz-adv-x="1024" />
      
      <glyph glyph-name="icon_jbxx_off" unicode="&#58887;" d="M490.642286 842.605714a266.678857 266.678857 0 1 1 0-533.211428 266.678857 266.678857 0 0 1 0 533.211428z m0-63.926857a202.605714 202.605714 0 1 0 0-405.357714 202.605714 202.605714 0 0 0 0 405.357714zM492.544 373.321143a417.645714 417.645714 0 0 0 195.291429-48.128 31.963429 31.963429 0 1 0-29.842286-56.612572 353.645714 353.645714 0 0 1-165.449143 40.740572c-195.510857 0-353.865143-157.622857-353.865143-351.963429a31.963429 31.963429 0 1 0-64 0c0 229.741714 187.099429 415.963429 417.865143 415.963429z m403.456-181.321143a31.963429 31.963429 0 0 0 3.072-63.853714l-3.072-0.146286h-256a31.963429 31.963429 0 0 0-3.072 63.853714l3.072 0.146286h256z m0-192a32.036571 32.036571 0 0 0 3.072-63.853714l-3.072-0.146286h-256a31.963429 31.963429 0 0 0-3.072 63.853714l3.072 0.146286h256z"  horiz-adv-x="1024" />
      
      <glyph glyph-name="icon_yh_off" unicode="&#58888;" d="M767.232 413.44a168.064 168.064 0 0 1-94.08 293.76 32 32 0 1 1-6.464-63.68 104.192 104.192 0 0 0 93.888-104.128c0-53.312-39.872-97.984-92.8-103.936a31.488 31.488 0 0 1-25.088-18.88l-0.128-0.256a30.848 30.848 0 0 1-2.304-8.832c-0.192-1.152-0.832-2.112-0.896-3.328 0-0.896 0.384-1.664 0.384-2.56 0-0.512-0.192-0.96-0.128-1.472 0.064-0.832 0.512-1.472 0.64-2.24 2.24-14.72 13.888-26.56 29.312-27.456a241.728 241.728 0 0 0 226.56-220.608 32 32 0 0 1 63.744 5.248 306.112 306.112 0 0 1-192.64 258.304zM536.128 396.864a192.32 192.32 0 0 1 72.512 150.4c0 106.24-86.4 192.704-192.64 192.704-106.24 0-192.64-86.4-192.64-192.64 0-60.8 28.352-115.072 72.512-150.4-125.888-46.272-220.16-162.496-231.744-302.272a32 32 0 0 1 63.744-5.248C140.16 238.08 266.752 354.56 416 354.56s275.84-116.48 288.128-265.216a32 32 0 0 1 63.744 5.248c-11.52 139.776-105.856 256-231.744 302.208zM287.36 547.264c0 70.976 57.664 128.704 128.64 128.704 70.976 0 128.64-57.728 128.64-128.64 0-71.04-57.664-128.704-128.64-128.704a128.832 128.832 0 0 0-128.64 128.64z"  horiz-adv-x="1024" />
      
      <glyph glyph-name="icon_rj_off" unicode="&#58889;" d="M510.272-93.888c-17.024 0-35.84 5.12-51.2 13.696L134.848 107.52c-30.72 18.752-51.2 51.2-51.2 88.768V571.712a102.4 102.4 0 0 0 51.2 88.768L459.072 849.92a100.096 100.096 0 0 0 102.4 0l327.68-189.44c32.448-18.752 51.2-52.928 51.2-88.768l-1.664-375.424c0-35.84-18.816-70.016-51.2-87.04L563.2-80.192a116.096 116.096 0 0 0-52.928-13.696z m0 904.576a48.192 48.192 0 0 1-25.6-6.848L160.448 614.4c-15.36-8.512-25.6-25.6-25.6-42.688v-375.424c0-18.816 10.24-34.176 25.6-44.416l324.224-187.712a54.4 54.4 0 0 1 51.2 0l324.288 189.44c15.36 8.512 25.6 25.6 25.6 42.688l1.728 375.424c0 18.816-10.24 35.84-25.6 44.416L535.872 803.84c-6.784 5.12-17.024 6.848-25.6 6.848zM515.392 358.4c-5.12 0-8.512 1.728-13.632 3.392l-266.24 153.6c-11.968 6.848-17.088 22.208-8.512 34.176 6.784 11.904 22.144 17.024 34.112 8.512l254.272-146.752 254.336 150.144a27.328 27.328 0 0 0 35.84-8.512 27.328 27.328 0 0 0-8.576-35.84L529.088 361.792a32.128 32.128 0 0 0-13.696-3.392zM515.392 66.56a26.24 26.24 0 0 0-25.6 25.6V384c0 13.632 11.968 25.6 25.6 25.6 13.696 0 25.6-11.968 25.6-25.6v-291.84c0-13.632-10.24-25.6-25.6-25.6z"  horiz-adv-x="1024" />
      
      <glyph glyph-name="icon_wxpz_off" unicode="&#58890;" d="M499.072 548.032c27.712 0 45.76 18.688 45.76 45.76s-18.688 45.76-45.76 45.76c-26.496 0-54.784-17.472-54.784-45.76 0-27.712 28.288-45.76 54.784-45.76zM299.776 594.368c0 27.136-18.624 45.76-45.76 45.76-26.432 0-54.72-17.408-54.72-45.76 0-28.288 28.288-45.696 54.72-45.696 27.712-0.64 45.76 18.048 45.76 45.696zM1024 270.528c0 67.392-30.08 132.48-84.288 183.04-53.568 49.92-125.184 80.64-201.088 87.232v3.648C706.752 692.48 547.84 804.48 368.448 804.48 164.928 804.48 0 663.04 0 489.024c0-92.672 46.976-176.96 136.64-242.56l-30.72-92.736a17.856 17.856 0 0 1 5.44-19.2 18.496 18.496 0 0 1 19.84-2.432l116.8 58.368 13.888-3.008h0.64c36.032-7.232 67.392-13.824 105.92-13.824 7.168 0 34.88 2.368 43.904 6.592 44.544-108.352 163.776-181.184 297.408-181.184 33.728 0 68.032 7.808 102.336 16.256l89.728-48.768a19.648 19.648 0 0 1 8.384-2.432 15.872 15.872 0 0 1 11.456 4.224c6.016 4.8 7.808 12.032 6.016 19.264l-22.848 75.264C981.248 123.648 1024 197.696 1024 270.528z m-159.552-178.176a16.256 16.256 0 0 1-6.016-18.688l12.672-42.752-54.208 29.504a19.648 19.648 0 0 1-8.384 2.432c-1.28 0-3.008 0-4.224-0.64-31.36-7.808-63.808-16.192-95.744-16.192-146.304 0-265.472 100.48-265.472 223.936 0 123.392 119.168 223.936 265.472 223.936 143.872 0 264.896-102.4 264.896-224 0.64-61.376-37.952-124.608-108.992-177.536zM181.824 255.488a17.408 17.408 0 0 1-6.656 19.84C90.88 334.336 48.128 405.952 48.128 488.448c0 148.672 143.36 269.696 319.68 269.696 154.112 0 291.968-93.888 322.112-218.496-164.352-3.648-297.408-120.448-297.408-261.888 0-18.688 2.368-37.952 7.808-57.216h-2.368c-9.664-0.64-19.84-1.152-30.08-1.152-34.368 0-63.872 5.952-95.744 12.608l-19.264 3.584a24.896 24.896 0 0 1-11.52-1.152l-80-40.32 20.48 61.376zM612.864 386.112c-18.688 0-37.376-18.688-37.376-37.312 0-18.688 18.688-37.312 37.376-37.312 28.288 0 45.696 19.2 45.696 37.312 0 18.048-17.408 37.312-45.696 37.312zM804.864 386.112c-18.624 0-36.736-18.688-36.736-37.312 0-18.688 18.112-37.312 36.736-37.312 28.288 0 45.76 19.2 45.76 37.312 0 18.048-17.472 37.312-45.76 37.312z"  horiz-adv-x="1024" />
      
      <glyph glyph-name="icon_gzrl_off" unicode="&#58891;" d="M192.512-116.608a118.08 118.08 0 0 0-118.336 118.336V702.528c0 65.6 52.8 118.4 118.4 118.4h72.768V868.608a16 16 0 0 0 16 16h13.504a16 16 0 0 0 16-16v-47.68h400.512V868.608a16 16 0 0 0 16 16h13.44a16 16 0 0 0 16-16v-47.68h72.896c65.536 0 118.272-52.8 118.272-118.4v-700.8a118.08 118.08 0 0 0-118.272-118.4H192.512zM119.68 1.728c0-40.064 32.768-72.832 72.832-72.832h637.184c40 0 72.768 32.768 72.768 72.832V520.512H119.744v-518.784zM192.512 775.424c-40.064 0-72.832-32.768-72.832-72.832v-136.576h782.784V702.592c0 40.064-32.768 72.832-72.768 72.832h-72.832v-47.744a16 16 0 0 0-16-16h-13.504a16 16 0 0 0-16 16v47.744H310.848v-47.744a16 16 0 0 0-16-16h-13.504a16 16 0 0 0-16 16v47.744H192.512zM265.344 358.912a16 16 0 0 0 16 16h459.52a16 16 0 0 0 16-16v-13.504a16 16 0 0 0-16-16h-459.52a16 16 0 0 0-16 16v13.44z m0-192.96a16 16 0 0 0 16 16h459.52a16 16 0 0 0 16-16v-13.504a16 16 0 0 0-16-16h-459.52a16 16 0 0 0-16 16v13.44z"  horiz-adv-x="1024" />
      
      <glyph glyph-name="icon_fspz_off" unicode="&#58892;" d="M823.232 818.752a90.56 90.56 0 0 0 119.552-107.52c-43.776-220.48-87.36-440.896-131.008-661.312-2.24-10.304-3.648-20.864-6.784-31.04a89.664 89.664 0 0 0-87.04-63.36c-16-0.192-31.936 4.48-45.632 12.672L545.152 48.64c-36.992-31.296-74.112-62.464-111.104-93.696a49.088 49.088 0 0 0-27.136-11.264 43.52 43.52 0 0 0-34.112 12.16 49.728 49.728 0 0 0-14.848 30.208c-0.64 4.672-0.448 9.408-0.448 14.08v220.928c0 5.376 2.304 10.624 6.016 14.528l166.72 175.232c18.816 19.648 37.376 39.616 56.384 59.136-28.416-22.016-56.32-44.672-84.608-66.88L286.72 232.32a22.4 22.4 0 0 0-26.816-3.328c-42.88 27.072-85.76 54.272-128.64 81.28-5.632 3.712-11.584 6.848-16.96 11.008a90.688 90.688 0 0 0-29.952 40.064 91.072 91.072 0 0 0 0.384 65.024A90.88 90.88 0 0 0 128 473.92c18.56 8.384 36.672 17.856 55.04 26.88l625.28 310.848c4.8 2.624 9.728 5.12 14.848 7.04z m-6.528-51.392C596.48 657.856 376.32 548.288 156.096 438.848a54.528 54.528 0 0 1-22.272-14.72 46.656 46.656 0 0 1 8.192-69.248c42.624-26.752 85.12-53.76 127.744-80.64 144.64 114.56 289.152 229.44 433.728 344.128 11.2 8.704 22.336 18.048 35.648 23.424a25.984 25.984 0 0 0 24.64-1.984 23.552 23.552 0 0 0 9.728-22.848c-1.28-9.28-6.784-17.024-12.16-24.32-11.648-15.168-25.6-28.352-38.528-42.368L401.024 211.84v-214.784c-0.192-3.52 0-7.232 2.112-10.176 3.264 1.152 5.632 3.648 8.256 5.76l118.016 99.712a21.952 21.952 0 0 0 25.6 1.6c46.336-29.184 92.608-58.56 139.008-87.808 9.984-6.4 22.464-8.576 34.048-6.144a47.168 47.168 0 0 1 35.456 32.384c2.496 8.704 3.712 17.728 5.568 26.56 44.096 222.4 88 444.8 132.096 667.136a46.912 46.912 0 0 1-51.264 54.528c-12.16-1.216-22.4-8.32-33.28-13.248z"  horiz-adv-x="1024" />
      
      <glyph glyph-name="icon_zdkz_off" unicode="&#58893;" d="M153.855904 886.016006A25.471984 25.471984 0 0 1 148.543907 870.400016v-635.647603a110.143931 110.143931 0 0 1 0-214.271866v-122.879923a25.599984 25.599984 0 1 1 51.199968 0v122.879923a110.143931 110.143931 0 0 1 0 214.271866V870.400016a25.599984 25.599984 0 0 1-45.887971 15.61599z m20.287987-817.279489a58.879963 58.879963 0 1 1 0 117.823926 58.879963 58.879963 0 0 1 0-117.887926zM515.135678 870.400016a25.599984 25.599984 0 1 0 51.199968 0v-125.823921a110.143931 110.143931 0 0 0 0-214.271866V-102.399376a25.599984 25.599984 0 0 0-51.199968 0V530.304229a110.143931 110.143931 0 0 0 0 214.271866V870.400016z m84.479947-232.959854a58.879963 58.879963 0 1 0-117.823926 0 58.879963 58.879963 0 0 0 117.887926 0zM881.791449 870.400016a25.599984 25.599984 0 1 0 51.199968 0v-633.727604a110.143931 110.143931 0 0 0 0-214.335866V-102.399376a25.471984 25.471984 0 0 0-25.599984-25.599984 25.599984 25.599984 0 0 0-25.599984 25.599984v124.799922a110.143931 110.143931 0 0 0 0 214.271866V870.400016z m84.479947-740.927537a58.879963 58.879963 0 1 0-117.759926 0 58.879963 58.879963 0 0 0 117.759926 0z"  horiz-adv-x="1024" />
      
      <glyph glyph-name="icon_czrz_off" unicode="&#58894;" d="M716.8-102.4H153.6c-42.496 0-76.8 35.84-76.8 79.872V790.528C76.8 834.56 111.104 870.4 153.6 870.4h563.2c42.496 0 76.8-35.84 76.8-79.872v-233.984c0-14.336-11.264-25.6-25.6-25.6a25.344 25.344 0 0 0-25.6 25.6V790.528c0 15.872-11.264 28.672-25.6 28.672H153.6c-14.336 0-25.6-12.8-25.6-28.672v-813.056c0-15.872 11.264-28.672 25.6-28.672h563.2c14.336 0 25.6 12.8 25.6 28.672V258.048c0 14.336 11.264 25.6 25.6 25.6 14.336 0 25.6-11.264 25.6-25.6v-280.576c0-44.032-34.304-79.872-76.8-79.872zM563.2 512h-256c-42.496 0-76.8 34.304-76.8 76.8V640c0 42.496 34.304 76.8 76.8 76.8h256c42.496 0 76.8-34.304 76.8-76.8v-51.2C640 546.304 605.696 512 563.2 512z m-256 153.6c-14.336 0-25.6-11.264-25.6-25.6v-51.2c0-14.336 11.264-25.6 25.6-25.6h256c14.336 0 25.6 11.264 25.6 25.6V640c0 14.336-11.264 25.6-25.6 25.6h-256zM153.6 520.704H51.2a25.344 25.344 0 0 0-25.6 25.6c0 14.336 11.264 25.6 25.6 25.6h102.4c14.336 0 25.6-11.264 25.6-25.6 0-14.336-11.264-25.6-25.6-25.6zM153.6 349.696H51.2a25.344 25.344 0 0 0-25.6 25.6c0 14.336 11.264 25.6 25.6 25.6h102.4c14.336 0 25.6-11.264 25.6-25.6 0-14.336-11.264-25.6-25.6-25.6zM153.6 179.2H51.2a25.344 25.344 0 0 0-25.6 25.6c0 14.336 11.264 25.6 25.6 25.6h102.4c14.336 0 25.6-11.264 25.6-25.6 0-14.336-11.264-25.6-25.6-25.6zM512 25.6H409.6a25.344 25.344 0 0 0-25.6 25.6c0 14.336 11.264 25.6 25.6 25.6H512c14.336 0 25.6-11.264 25.6-25.6 0-14.336-11.264-25.6-25.6-25.6zM514.048 55.296l-3.584 142.336a74.88 74.88 0 0 0 14.848 47.104l286.208 393.728a76.8 76.8 0 0 0 107.52 16.896l41.472-30.208c34.304-25.088 41.984-73.216 16.896-107.52L691.2 123.904a76.864 76.864 0 0 0-40.448-28.672l-136.704-39.936z m359.424 563.712c-1.536 0-2.56 0-4.096-0.512a25.664 25.664 0 0 1-16.896-10.24l-286.208-393.728a25.6 25.6 0 0 1-5.12-15.872L563.2 122.88l72.704 21.504c5.12 1.536 10.24 5.12 13.312 9.728l286.208 393.728a25.984 25.984 0 0 1-5.632 35.84l-41.472 30.208a21.888 21.888 0 0 1-14.848 5.12zM542.4 219.264l29.44 41.92 119.424-83.84-29.44-41.856-119.424 83.84z"  horiz-adv-x="1024" />
      
      <glyph glyph-name="icon_yxsz_off" unicode="&#58895;" d="M502.208 369.216a64 64 0 0 0-64.64 0l-390.4 228.352 26.368 45.248 364.032-212.928a64 64 0 0 1 64.64 0l364.16 212.928 26.304-45.248-390.4-228.352z m460.288-198.336a16 16 0 0 1 16 16v30.08a16 16 0 0 1-16 16h-25.216a141.248 141.248 0 0 1-19.328 46.72l17.792 17.792a16 16 0 0 1 0 22.656l-21.248 21.184a16 16 0 0 1-22.656 0l-17.664-17.728a143.552 143.552 0 0 1-46.72 19.2V368a16 16 0 0 1-16 16h-30.08a16 16 0 0 1-16-16v-25.216a142.336 142.336 0 0 1-46.656-19.328l-17.664 17.792a16 16 0 0 1-22.656 0L657.152 320a16 16 0 0 1 0-22.656l17.792-17.664a141.44 141.44 0 0 1-19.328-46.72H630.4a16 16 0 0 1-16-16v-30.08c0-8.832 7.168-16 16-16h25.216c3.584-16.576 10.176-32.384 19.328-46.656l-17.792-17.664a16 16 0 0 1 0-22.656l21.248-21.248a16 16 0 0 1 22.656 0l17.664 17.792c14.272-9.216 30.08-15.744 46.72-19.328v-25.216c0-8.832 7.104-16 16-16h30.08a16 16 0 0 1 16 16v25.216c16.576 3.584 32.384 10.176 46.656 19.328l17.664-17.792a16 16 0 0 1 22.656 0l21.248 21.248a16 16 0 0 1 0 22.656l-17.792 17.664c9.216 14.272 15.744 30.08 19.328 46.72h25.216z m-71.296 31.104a94.72 94.72 0 1 0-189.44 0 94.72 94.72 0 0 0 189.44 0zM563.456 130.304a26.176 26.176 0 0 0-26.24-26.24H109.568a64 64 0 0 0-64 64V684.16a64 64 0 0 0 64 64h720.768a64 64 0 0 0 64-64v-222.976a26.176 26.176 0 0 0-52.288 0V663.744a32 32 0 0 1-32 32H129.856a32 32 0 0 1-32-32v-475.328a32 32 0 0 1 32-32h407.424c14.464 0 26.176-11.712 26.176-26.176z"  horiz-adv-x="1024" />
      
      <glyph glyph-name="icon_dsrw_off" unicode="&#58897;" d="M651.776 661.568H221.824c-7.168 0-13.12-1.792-17.28-5.952-4.16-4.16-5.952-10.112-5.952-17.28 0-7.168 1.792-13.12 5.952-17.28 4.16-4.096 10.112-5.888 17.28-5.888h429.952c7.168 0 13.12 1.792 17.28 5.952 4.16 4.096 5.952 10.048 5.952 17.28 0 7.104-1.792 13.056-5.952 17.216-4.16 4.16-10.112 5.952-17.28 5.952zM507.776 508.16H221.824c-7.168 0-13.12-1.792-17.28-5.888-4.16-4.16-5.952-10.112-5.952-17.28 0-7.168 1.792-13.12 5.952-17.28 4.16-4.096 10.112-5.952 17.28-5.952h285.952c7.168 0 13.12 1.856 17.28 5.952 4.16 4.16 5.952 10.112 5.952 17.28 0 7.168-1.792 13.12-5.952 17.28-4.16 4.096-10.112 5.952-17.28 5.952zM844.992 184.192h-86.784V270.976a23.168 23.168 0 0 1-46.4 0v-109.952a23.232 23.232 0 0 1 23.168-23.232h110.08a23.296 23.296 0 0 1 23.168 23.168 23.232 23.232 0 0 1-23.232 23.232z m-415.168-228.672a23.232 23.232 0 0 1-23.168 23.168H164.032a57.088 57.088 0 0 0-56.832 56.832V731.52a57.088 57.088 0 0 0 56.832 56.768h560a57.088 57.088 0 0 0 56.768-56.768v-226.048a23.168 23.168 0 0 1 46.4 0V731.52c0 56.768-46.464 103.168-103.232 103.168h-560C107.264 834.688 60.8 788.288 60.8 731.52v-696c0-56.768 46.464-103.232 103.232-103.232h242.56a23.168 23.168 0 0 1 23.232 23.232zM734.976 345.984a184.96 184.96 0 1 0 0-369.984 184.96 184.96 0 0 0 0 369.984z m0 40a225.024 225.024 0 1 1 0-449.984 225.024 225.024 0 0 1 0 449.984zM604.16 291.84l4.544-4.544-4.48 4.48z m130.816 47.744a178.56 178.56 0 0 0 113.28-40.512l8.192 9.92a191.36 191.36 0 0 1-121.472 43.392v-12.8z m113.28-40.512c32-26.24 53.824-62.72 61.952-103.232l12.544 2.56a191.424 191.424 0 0 1-66.304 110.592l-8.128-9.92z m61.952-103.232a178.56 178.56 0 0 0-17.664-119.04l11.264-6.016a191.36 191.36 0 0 1 18.944 127.552l-12.544-2.496z m-17.664-119.04a178.56 178.56 0 0 0-89.152-80.768l4.864-11.84a191.36 191.36 0 0 1 95.552 86.592l-11.264 6.016z m-89.152-80.768a178.56 178.56 0 0 0-120.192-5.952l-3.776-12.224a191.36 191.36 0 0 1 128.832 6.336l-4.864 11.776z m-120.192-5.952a178.56 178.56 0 0 0-96.64 71.68l-10.688-7.104c24.576-36.8 61.184-64 103.616-76.8l3.712 12.224z m-96.64 71.68a178.56 178.56 0 0 0-29.312 116.736l-12.736 1.28a191.36 191.36 0 0 1 31.36-125.12l10.624 7.104z m-29.312 116.736a178.56 178.56 0 0 0 51.456 108.8L599.68 296.32a191.36 191.36 0 0 1-55.168-116.544l12.8-1.28z m51.456 108.8a177.28 177.28 0 0 0 57.92 38.784l-4.928 11.84c-23.232-9.6-44.288-23.744-62.08-41.6l9.088-9.024z m57.92 38.784a177.28 177.28 0 0 0 68.352 13.504v12.8a190.144 190.144 0 0 1-73.28-14.464l4.928-11.84z m68.352 66.304a231.424 231.424 0 0 1-231.36-231.36h12.8a218.624 218.624 0 0 0 218.56 218.56v12.8zM503.68 161.024a231.424 231.424 0 0 1 231.36-231.424v12.8a218.624 218.624 0 0 0-218.56 218.624h-12.8z m231.36-231.424a231.424 231.424 0 0 1 231.424 231.424h-12.8a218.624 218.624 0 0 0-218.624-218.624v-12.8z m231.424 231.424a231.424 231.424 0 0 1-231.424 231.36v-12.8a218.624 218.624 0 0 0 218.624-218.56h12.8z"  horiz-adv-x="1024" />
      
      <glyph glyph-name="a-icon_OpenAPI_off" unicode="&#58898;" d="M735.104 286.848a30.016 30.016 0 0 0-21.952 50.432l84.608 90.88c48.128 51.712 24.384 168.128-28.416 217.28l-1.792 1.664c-26.24 24.448-69.888 41.472-113.856 44.48-45.056 3.072-83.264-8.512-104.896-31.744L464.256 568.96a30.016 30.016 0 1 0-43.968 40.896l84.608 90.88c33.92 36.48 89.664 55.04 152.896 50.688 57.92-3.904 114.24-26.496 150.656-60.416l1.792-1.664c36.48-33.92 62.976-88.448 71.04-145.92 8.832-62.72-5.632-119.68-39.616-156.16l-84.544-90.88a29.888 29.888 0 0 0-22.016-9.6zM734.272 286.272a29.888 29.888 0 0 0-20.416 8.064l-292.48 272.192a30.016 30.016 0 1 0 40.832 43.968l292.48-272.256a30.016 30.016 0 0 0-20.416-51.968z m55.936 353.408a30.016 30.016 0 0 0-21.952 50.432l75.328 80.896a30.016 30.016 0 0 0 43.904-40.832L812.16 649.216a29.952 29.952 0 0 0-21.952-9.6z m-393.6-636.736c-5.76 0-11.712 0.192-17.728 0.64-57.92 3.84-114.24 26.496-150.656 60.416l-1.792 1.6c-36.48 33.92-62.976 88.512-71.04 145.984-8.832 62.72 5.632 119.68 39.616 156.16l84.544 90.88a30.016 30.016 0 1 0 43.968-40.896l-84.608-90.88c-21.632-23.232-30.4-62.208-24.128-106.88 6.144-43.648 26.24-85.952 52.48-110.4l1.856-1.664c26.24-24.448 69.888-41.536 113.856-44.48 45.056-3.072 83.264 8.512 104.896 31.744l84.544 90.88a30.016 30.016 0 1 0 43.968-40.896l-84.608-90.88c-30.72-33.024-79.36-51.328-135.104-51.328zM594.88 136.512a29.888 29.888 0 0 0-20.48 8l-292.48 272.256a30.016 30.016 0 1 0 40.896 43.904l292.48-272.256a30.016 30.016 0 0 0-20.416-51.904zM171.136-25.6a30.016 30.016 0 0 0-21.952 50.432l75.328 80.96a30.016 30.016 0 1 0 43.904-40.896l-75.328-80.96a29.952 29.952 0 0 0-21.952-9.536zM389.76 339.328a29.888 29.888 0 0 0-22.016 50.432l70.08 75.264a30.016 30.016 0 1 0 43.904-40.896L411.712 348.928a29.952 29.952 0 0 0-21.952-9.6z m138.432-128.832a30.016 30.016 0 0 0-21.952 50.432l70.016 75.264a30.016 30.016 0 1 0 43.904-40.896l-70.016-75.264a29.888 29.888 0 0 0-21.952-9.536z"  horiz-adv-x="1024" />
      
      <glyph glyph-name="icon_ynl_off" unicode="&#58899;" d="M765.952-61.12H225.28a181.248 181.248 0 1 0 0 362.496c8.192 0 15.68-0.64 23.872-1.28a222.272 222.272 0 0 0 218.432 261.44c118.144 0 215.04-92.864 221.248-208.96a214.144 214.144 0 0 0 291.52-199.36 214.72 214.72 0 0 0-214.4-214.336zM225.28 260.48a140.288 140.288 0 1 1 0-280.576h540.672a173.632 173.632 0 0 1 173.44 173.44 173.056 173.056 0 0 1-260.8 148.8 19.584 19.584 0 0 0-21.888 0.64 20.48 20.48 0 0 0-9.536 19.84c0.64 4.8 0.64 10.88 0.64 17.728 0.704 99.008-80.512 180.224-180.16 180.224A181.248 181.248 0 0 1 296.96 278.848a20.16 20.16 0 0 0-4.8-21.12 20.16 20.16 0 0 0-21.12-4.8 152.64 152.64 0 0 1-45.76 7.488z m734.528 101.056a20.096 20.096 0 0 0-20.48 20.48V768.32a5.888 5.888 0 0 1-5.44 5.504h-440.32a5.888 5.888 0 0 1-5.44-5.504v-135.168c0-11.584-8.896-20.48-20.48-20.48a20.096 20.096 0 0 0-20.48 20.48V768.32c0 25.28 21.12 46.464 46.4 46.464h440.32c25.28 0 46.4-21.184 46.4-46.464v-386.368c0-11.584-8.832-20.48-20.48-20.48zM949.568 612.672h-481.92a20.096 20.096 0 0 0-20.48 20.48c0 11.648 8.832 20.48 20.48 20.48h481.92c11.648 0 20.48-8.832 20.48-20.48 0-11.584-8.832-20.48-20.48-20.48zM959.168 458.432H728.32a20.096 20.096 0 0 0-20.48 20.48c0 11.584 8.896 20.48 20.48 20.48h230.784c11.52 0 20.48-8.896 20.48-20.48 0-11.648-8.96-20.48-20.48-20.48z m-65.536 231.424h-70.4a20.096 20.096 0 0 0-20.48 20.48c0 11.584 8.96 20.48 20.48 20.48h70.4c11.52 0 20.48-8.896 20.48-20.48 0-11.648-8.96-20.48-20.48-20.48z m0-152.256h-70.4a20.096 20.096 0 0 0-20.48 20.48c0 11.584 8.96 20.48 20.48 20.48h70.4c11.52 0 20.48-8.896 20.48-20.48s-8.96-20.48-20.48-20.48z"  horiz-adv-x="1024" />
      
      <glyph glyph-name="icon_gly" unicode="&#58900;" d="M1000.128 49.088l-13.632-51.456a35.072 35.072 0 0 0-43.2-24.96l-11.52 3.072c-4.8-6.528-9.984-12.8-15.872-18.688-2.816-2.816-5.888-4.992-8.832-7.616 0.448-0.896 1.152-1.664 1.408-2.688l4.736-17.088a34.88 34.88 0 0 0-24.704-43.136l-50.944-13.44a35.84 35.84 0 0 0-43.328 25.344l-2.816 10.368a168.576 168.576 0 0 0-60.672 13.44l-8.576-8.64a35.264 35.264 0 0 0-50.048 0.128l-37.568 37.76a35.584 35.584 0 0 0-0.064 50.24l8.576 8.576a170.88 170.88 0 0 0-12.672 47.232l-11.776 3.2a35.648 35.648 0 0 0-25.088 43.52l13.376 51.52a35.072 35.072 0 0 0 43.264 24.96l11.52-3.136c4.736 6.528 9.92 12.8 15.808 18.688 8.96 8.96 18.816 16.32 29.12 22.784l-1.28 4.608a34.88 34.88 0 0 0 24.64 43.136l50.944 13.44a35.84 35.84 0 0 0 43.328-25.28l3.648-13.44c11.84-2.24 23.552-5.44 34.816-10.368l8.64 8.576a35.264 35.264 0 0 0 50.048-0.064l37.504-37.76a35.584 35.584 0 0 0 0.128-50.24l-8.576-8.64c6.592-15.168 10.688-31.04 12.672-47.232l11.776-3.2c18.88-5.12 30.208-24.64 25.216-43.52z m-203.52 129.92a102.208 102.208 0 1 1 0-204.352 102.208 102.208 0 0 1 0 204.352z m-20.48 163.584a40.832 40.832 0 0 0-71.296-27.008l-0.896-1.216a408.96 408.96 0 0 1-602.496-360.32 40.832 40.832 0 1 0-81.728 0c0 214.656 138.048 396.736 330.176 463.36a265.856 265.856 0 1 0 426.496 211.584c0-86.4-41.408-162.944-105.216-211.584 28.608-9.984 56-22.784 81.984-37.568l-0.32-0.32a40.96 40.96 0 0 0 23.296-36.928zM694.4 628.864a184.064 184.064 0 1 1-368.064-0.064 184.064 184.064 0 0 1 368.064 0.064z"  horiz-adv-x="1024" />
      
    </font>
</defs>
</svg>
